<svg width="135" height="40" viewBox="0 0 135 40" fill="none" xmlns="http://www.w3.org/2000/svg">
<rect width="135" height="40" rx="8" fill="#181818"/>
<path d="M68.136 21.7519C65.784 21.7519 63.867 23.5399 63.867 26.0049C63.867 28.4539 65.784 30.2579 68.136 30.2579C70.488 30.2579 72.405 28.4539 72.405 26.0049C72.405 23.5399 70.488 21.7519 68.136 21.7519ZM68.136 28.5829C66.847 28.5829 65.735 27.5199 65.735 26.0049C65.735 24.4739 66.847 23.4269 68.136 23.4269C69.425 23.4269 70.536 24.4739 70.536 26.0049C70.536 27.5189 69.425 28.5829 68.136 28.5829ZM58.822 21.7519C56.47 21.7519 54.553 23.5399 54.553 26.0049C54.553 28.4539 56.47 30.2579 58.822 30.2579C61.174 30.2579 63.091 28.4539 63.091 26.0049C63.092 23.5399 61.174 21.7519 58.822 21.7519ZM58.822 28.5829C57.533 28.5829 56.422 27.5199 56.422 26.0049C56.422 24.4739 57.534 23.4269 58.822 23.4269C60.111 23.4269 61.222 24.4739 61.222 26.0049C61.223 27.5189 60.111 28.5829 58.822 28.5829ZM47.744 23.0569V24.8609H52.062C51.933 25.8759 51.595 26.6169 51.079 27.1329C50.451 27.7609 49.468 28.4539 47.744 28.4539C45.086 28.4539 43.008 26.3109 43.008 23.6529C43.008 20.9949 45.086 18.8519 47.744 18.8519C49.178 18.8519 50.225 19.4159 50.998 20.1409L52.271 18.8679C51.192 17.8369 49.758 17.0469 47.744 17.0469C44.103 17.0469 41.042 20.0109 41.042 23.6519C41.042 27.2929 44.103 30.2569 47.744 30.2569C49.709 30.2569 51.192 29.6129 52.352 28.4039C53.544 27.2119 53.915 25.5359 53.915 24.1829C53.915 23.7639 53.883 23.3769 53.818 23.0549H47.744V23.0569ZM93.052 24.4579C92.698 23.5069 91.618 21.7509 89.411 21.7509C87.22 21.7509 85.4 23.4749 85.4 26.0039C85.4 28.3879 87.204 30.2569 89.621 30.2569C91.57 30.2569 92.698 29.0649 93.165 28.3719L91.715 27.4049C91.232 28.1139 90.571 28.5809 89.621 28.5809C88.67 28.5809 87.994 28.1459 87.559 27.2919L93.246 24.9399L93.052 24.4579ZM87.252 25.8759C87.204 24.2329 88.525 23.3949 89.475 23.3949C90.216 23.3949 90.844 23.7649 91.054 24.2969L87.252 25.8759ZM82.628 29.9999H84.497V17.4989H82.628V29.9999ZM79.567 22.7019H79.503C79.084 22.2029 78.279 21.7509 77.264 21.7509C75.137 21.7509 73.188 23.6199 73.188 26.0199C73.188 28.4039 75.137 30.2569 77.264 30.2569C78.279 30.2569 79.084 29.8059 79.503 29.2899H79.567V29.9019C79.567 31.5289 78.697 32.3989 77.295 32.3989C76.151 32.3989 75.442 31.5769 75.152 30.8849L73.525 31.5619C73.992 32.6899 75.233 34.0749 77.295 34.0749C79.486 34.0749 81.339 32.7859 81.339 29.6449V22.0089H79.567V22.7019ZM77.425 28.5829C76.136 28.5829 75.057 27.5039 75.057 26.0209C75.057 24.5229 76.136 23.4269 77.425 23.4269C78.698 23.4269 79.696 24.5219 79.696 26.0209C79.696 27.5029 78.698 28.5829 77.425 28.5829ZM101.806 17.4989H97.335V29.9999H99.2V25.2639H101.805C103.873 25.2639 105.906 23.7669 105.906 21.3819C105.906 18.9969 103.874 17.4989 101.806 17.4989ZM101.854 23.5239H99.2V19.2389H101.854C103.249 19.2389 104.041 20.3939 104.041 21.3819C104.041 22.3499 103.249 23.5239 101.854 23.5239ZM113.386 21.7289C112.035 21.7289 110.636 22.3239 110.057 23.6429L111.714 24.3349C112.068 23.6429 112.727 23.4179 113.419 23.4179C114.384 23.4179 115.365 23.9969 115.381 25.0259V25.1549C115.043 24.9619 114.319 24.6719 113.435 24.6719C111.65 24.6719 109.832 25.6529 109.832 27.4869C109.832 29.1599 111.296 30.2369 112.936 30.2369C114.191 30.2369 114.882 29.6739 115.316 29.0149H115.38V29.9799H117.181V25.1869C117.181 22.9669 115.525 21.7289 113.386 21.7289ZM113.16 28.5799C112.549 28.5799 111.696 28.2739 111.696 27.5189C111.696 26.5539 112.758 26.1839 113.674 26.1839C114.494 26.1839 114.88 26.3609 115.379 26.6019C115.235 27.7599 114.238 28.5799 113.16 28.5799ZM123.743 22.0019L121.604 27.4219H121.54L119.321 22.0019H117.311L120.64 29.5769L118.742 33.7909H120.688L125.819 22.0019H123.743ZM106.936 29.9999H108.802V17.4989H106.936V29.9999Z" fill="white"/>
<path d="M10.435 7.53809C10.144 7.84609 9.97198 8.32409 9.97198 8.94309V31.0591C9.97198 31.6791 10.144 32.1561 10.435 32.4641L10.509 32.5361L22.898 20.1471V20.0011V19.8551L10.509 7.46509L10.435 7.53809Z" fill="url(#paint0_linear_245_160)"/>
<path d="M27.028 24.2791L22.899 20.1481V20.0021V19.8561L27.029 15.7261L27.122 15.7791L32.015 18.5591C33.413 19.3531 33.413 20.6521 32.015 21.4471L27.122 24.2271L27.028 24.2791Z" fill="url(#paint1_linear_245_160)"/>
<path d="M27.122 24.225L22.899 20.001L10.435 32.464C10.896 32.952 11.656 33.012 12.513 32.525L27.122 24.225Z" fill="url(#paint2_linear_245_160)"/>
<path d="M27.122 15.777L12.514 7.47705C11.657 6.99005 10.897 7.05105 10.436 7.53805L22.899 20.001L27.122 15.777Z" fill="url(#paint3_linear_245_160)"/>
<path opacity="0.2" d="M27.029 24.1321L12.514 32.3791C11.702 32.8401 10.976 32.8101 10.51 32.3901L10.435 32.4651L10.509 32.5371C10.975 32.9571 11.701 32.9881 12.513 32.5261L27.121 24.2261L27.029 24.1321Z" fill="#181818"/>
<path opacity="0.12" d="M10.435 32.3181C10.144 32.0101 9.97198 31.5321 9.97198 30.9131V31.0591C9.97198 31.6781 10.144 32.1561 10.435 32.4641L10.51 32.3891L10.435 32.3181Z" fill="#181818"/>
<path opacity="0.12" d="M32.015 21.299L27.029 24.132L27.122 24.225L32.015 21.445C32.714 21.048 33.063 20.525 33.063 20.002C33.004 20.475 32.648 20.939 32.015 21.299Z" fill="#181818"/>
<path opacity="0.25" d="M12.513 7.62305L32.014 18.703C32.648 19.063 33.003 19.5271 33.062 20.001C33.062 19.4781 32.713 18.9541 32.014 18.557L12.513 7.47705C11.115 6.68305 9.97198 7.34205 9.97198 8.94305V9.09005C9.97198 7.48905 11.116 6.82905 12.513 7.62305Z" fill="white"/>
<path fill-rule="evenodd" clip-rule="evenodd" d="M73.609 12.224C73.019 12.831 72.286 13.133 71.409 13.133C70.532 13.133 69.799 12.83 69.21 12.224C68.62 11.618 68.326 10.876 68.326 9.99901C68.326 9.12201 68.62 8.38001 69.21 7.77401C69.799 7.16701 70.532 6.86401 71.409 6.86401C72.281 6.86401 73.013 7.16901 73.605 7.77801C74.197 8.38701 74.493 9.12701 74.493 9.99901C74.493 10.877 74.198 11.619 73.609 12.224ZM69.779 11.722C70.223 12.172 70.766 12.396 71.409 12.396C72.052 12.396 72.595 12.171 73.039 11.722C73.483 11.272 73.706 10.698 73.706 10C73.706 9.30201 73.483 8.72701 73.039 8.27801C72.596 7.82801 72.052 7.60401 71.409 7.60401C70.766 7.60401 70.223 7.82901 69.779 8.27801C69.336 8.72801 69.113 9.30201 69.113 10C69.113 10.698 69.336 11.272 69.779 11.722ZM47.418 10.243C47.418 11.081 47.17 11.748 46.673 12.246C46.109 12.838 45.373 13.134 44.469 13.134C43.603 13.134 42.866 12.834 42.261 12.234C41.655 11.633 41.352 10.889 41.352 10.001C41.352 9.11201 41.655 8.36801 42.261 7.76801C42.866 7.16701 43.603 6.86701 44.469 6.86701C44.899 6.86701 45.31 6.95101 45.7 7.11801C46.091 7.28601 46.404 7.50901 46.638 7.78801L46.111 8.31601C45.714 7.84101 45.167 7.60401 44.468 7.60401C43.836 7.60401 43.29 7.82601 42.829 8.27001C42.369 8.71401 42.139 9.29001 42.139 10C42.139 10.71 42.369 11.286 42.83 11.731C43.291 12.175 43.837 12.397 44.469 12.397C45.139 12.397 45.698 12.174 46.145 11.727C46.435 11.436 46.603 11.031 46.648 10.512H44.469V9.79001H47.376C47.405 9.94701 47.418 10.098 47.418 10.243ZM52.028 7.73702H49.296V9.63902H51.76V10.36H49.296V12.262H52.028V13H48.525V7.00002H52.028V7.73702ZM54.507 13H55.278V7.73702H56.954V7.00002H52.831V7.73702H54.507V13ZM59.938 13V7.00002H60.709V13H59.938ZM63.356 13H64.127V7.73702H65.803V7.00002H61.68V7.73702H63.356V13ZM75.575 7.00002V13H76.344V9.26202L76.311 8.10602H76.344L79.395 13H80.2V7.00002H79.429V10.512L79.462 11.668H79.429L76.513 7.00002H75.575Z" fill="white"/>
<path d="M73.609 12.224L73.5373 12.1543L73.5373 12.1543L73.609 12.224ZM69.21 12.224L69.2817 12.1543L69.2816 12.1543L69.21 12.224ZM69.21 7.77401L69.2816 7.84377L69.2818 7.84365L69.21 7.77401ZM73.605 7.77801L73.5333 7.84772L73.605 7.77801ZM69.779 11.722L69.7077 11.7922L69.7078 11.7922L69.779 11.722ZM73.039 11.722L73.1101 11.7923L73.1102 11.7922L73.039 11.722ZM73.039 8.27801L72.9677 8.34817L72.9679 8.34833L73.039 8.27801ZM69.779 8.27801L69.7079 8.2077L69.7077 8.20786L69.779 8.27801ZM46.673 12.246L46.6022 12.1754L46.6006 12.177L46.673 12.246ZM42.261 12.234L42.1906 12.305L42.1906 12.305L42.261 12.234ZM42.261 7.76801L42.3313 7.83907L42.3315 7.83896L42.261 7.76801ZM45.7 7.11801L45.7395 7.02613L45.7394 7.02609L45.7 7.11801ZM46.638 7.78801L46.7088 7.85866L46.7734 7.79388L46.7146 7.72375L46.638 7.78801ZM46.111 8.31601L46.0343 8.38014L46.1044 8.46412L46.1818 8.38666L46.111 8.31601ZM42.829 8.27001L42.7596 8.19799L42.7595 8.19806L42.829 8.27001ZM42.83 11.731L42.7605 11.803L42.7606 11.803L42.83 11.731ZM46.145 11.727L46.2157 11.7977L46.2158 11.7976L46.145 11.727ZM46.648 10.512L46.7476 10.5207L46.757 10.412H46.648V10.512ZM44.469 10.512H44.369V10.612H44.469V10.512ZM44.469 9.79001V9.69001H44.369V9.79001H44.469ZM47.376 9.79001L47.4743 9.77185L47.4592 9.69001H47.376V9.79001ZM49.296 7.73702V7.63702H49.196V7.73702H49.296ZM52.028 7.73702V7.83702H52.128V7.73702H52.028ZM49.296 9.63902H49.196V9.73902H49.296V9.63902ZM51.76 9.63902H51.86V9.53902H51.76V9.63902ZM51.76 10.36V10.46H51.86V10.36H51.76ZM49.296 10.36V10.26H49.196V10.36H49.296ZM49.296 12.262H49.196V12.362H49.296V12.262ZM52.028 12.262H52.128V12.162H52.028V12.262ZM52.028 13V13.1H52.128V13H52.028ZM48.525 13H48.425V13.1H48.525V13ZM48.525 7.00002V6.90002H48.425V7.00002H48.525ZM52.028 7.00002H52.128V6.90002H52.028V7.00002ZM55.278 13V13.1H55.378V13H55.278ZM54.507 13H54.407V13.1H54.507V13ZM55.278 7.73702V7.63702H55.178V7.73702H55.278ZM56.954 7.73702V7.83702H57.054V7.73702H56.954ZM56.954 7.00002H57.054V6.90002H56.954V7.00002ZM52.831 7.00002V6.90002H52.731V7.00002H52.831ZM52.831 7.73702H52.731V7.83702H52.831V7.73702ZM54.507 7.73702H54.607V7.63702H54.507V7.73702ZM59.938 7.00002V6.90002H59.838V7.00002H59.938ZM59.938 13H59.838V13.1H59.938V13ZM60.709 7.00002H60.809V6.90002H60.709V7.00002ZM60.709 13V13.1H60.809V13H60.709ZM64.127 13V13.1H64.227V13H64.127ZM63.356 13H63.256V13.1H63.356V13ZM64.127 7.73702V7.63702H64.027V7.73702H64.127ZM65.803 7.73702V7.83702H65.903V7.73702H65.803ZM65.803 7.00002H65.903V6.90002H65.803V7.00002ZM61.68 7.00002V6.90002H61.58V7.00002H61.68ZM61.68 7.73702H61.58V7.83702H61.68V7.73702ZM63.356 7.73702H63.456V7.63702H63.356V7.73702ZM75.575 13H75.475V13.1H75.575V13ZM75.575 7.00002V6.90002H75.475V7.00002H75.575ZM76.344 13V13.1H76.444V13H76.344ZM76.344 9.26202H76.444L76.4439 9.25916L76.344 9.26202ZM76.311 8.10602V8.00602H76.2081L76.211 8.10887L76.311 8.10602ZM76.344 8.10602L76.4288 8.05311L76.3995 8.00602H76.344V8.10602ZM79.395 13L79.3101 13.0529L79.3395 13.1H79.395V13ZM80.2 13V13.1H80.3V13H80.2ZM80.2 7.00002H80.3V6.90002H80.2V7.00002ZM79.429 7.00002V6.90002H79.329V7.00002H79.429ZM79.429 10.512H79.3289L79.329 10.5149L79.429 10.512ZM79.462 11.668V11.768H79.5649L79.5619 11.6652L79.462 11.668ZM79.429 11.668L79.3442 11.721L79.3735 11.768H79.429V11.668ZM76.513 7.00002L76.5978 6.94703L76.5684 6.90002H76.513V7.00002ZM71.409 13.233C72.3118 13.233 73.0711 12.9209 73.6807 12.2937L73.5373 12.1543C72.9669 12.7411 72.2602 13.033 71.409 13.033V13.233ZM69.1383 12.2937C69.7469 12.9199 70.5061 13.233 71.409 13.233V13.033C70.5579 13.033 69.8511 12.7401 69.2817 12.1543L69.1383 12.2937ZM68.226 9.99901C68.226 10.9009 68.5294 11.6683 69.1383 12.2938L69.2816 12.1543C68.7106 11.5677 68.426 10.8511 68.426 9.99901H68.226ZM69.1383 7.70426C68.5294 8.32975 68.226 9.09713 68.226 9.99901H68.426C68.426 9.1469 68.7106 8.43028 69.2816 7.84377L69.1383 7.70426ZM71.409 6.76401C70.5061 6.76401 69.7469 7.07715 69.1382 7.70438L69.2818 7.84365C69.8511 7.25688 70.5579 6.96401 71.409 6.96401V6.76401ZM73.6767 7.70831C73.0653 7.0794 72.3072 6.76401 71.409 6.76401V6.96401C72.2547 6.96401 72.9606 7.25863 73.5333 7.84772L73.6767 7.70831ZM74.593 9.99901C74.593 9.10174 74.2874 8.33651 73.6767 7.70831L73.5333 7.84772C74.1066 8.43751 74.393 9.15229 74.393 9.99901H74.593ZM73.6806 12.2938C74.2886 11.6693 74.593 10.9019 74.593 9.99901H74.393C74.393 10.8521 74.1074 11.5687 73.5373 12.1543L73.6806 12.2938ZM71.409 12.296C70.7921 12.296 70.275 12.0823 69.8502 11.6518L69.7078 11.7922C70.171 12.2617 70.7398 12.496 71.409 12.496V12.296ZM72.9679 11.6517C72.543 12.0814 72.0257 12.296 71.409 12.296V12.496C72.0782 12.496 72.647 12.2607 73.1101 11.7923L72.9679 11.6517ZM73.606 10C73.606 10.6746 73.3914 11.2225 72.9678 11.6518L73.1102 11.7922C73.5746 11.3216 73.806 10.7214 73.806 10H73.606ZM72.9679 8.34833C73.3914 8.77658 73.606 9.32535 73.606 10H73.806C73.806 9.27868 73.5746 8.67744 73.1101 8.2077L72.9679 8.34833ZM71.409 7.70401C72.0259 7.70401 72.544 7.91776 72.9677 8.34817L73.1103 8.20786C72.648 7.73826 72.0781 7.50401 71.409 7.50401V7.70401ZM69.8501 8.34833C70.275 7.91865 70.7922 7.70401 71.409 7.70401V7.50401C70.7397 7.50401 70.171 7.73937 69.7079 8.2077L69.8501 8.34833ZM69.213 10C69.213 9.32541 69.4276 8.77752 69.8503 8.34817L69.7077 8.20786C69.2444 8.67851 69.013 9.27862 69.013 10H69.213ZM69.8503 11.6519C69.4276 11.2225 69.213 10.6746 69.213 10H69.013C69.013 10.7214 69.2444 11.3215 69.7077 11.7922L69.8503 11.6519ZM46.7438 12.3167C47.263 11.7964 47.518 11.1021 47.518 10.243H47.318C47.318 11.06 47.077 11.6996 46.6022 12.1754L46.7438 12.3167ZM44.469 13.234C45.3971 13.234 46.1604 12.929 46.7454 12.315L46.6006 12.177C46.0576 12.747 45.3489 13.034 44.469 13.034V13.234ZM42.1906 12.305C42.8147 12.924 43.5771 13.234 44.469 13.234V13.034C43.6288 13.034 42.9173 12.7441 42.3314 12.163L42.1906 12.305ZM41.252 10.001C41.252 10.9145 41.5648 11.6844 42.1906 12.305L42.3314 12.163C41.7452 11.5816 41.452 10.8635 41.452 10.001H41.252ZM42.1906 7.69695C41.5648 8.31659 41.252 9.08657 41.252 10.001H41.452C41.452 9.13746 41.7452 8.41943 42.3313 7.83907L42.1906 7.69695ZM44.469 6.76701C43.5771 6.76701 42.8146 7.07707 42.1905 7.69707L42.3315 7.83896C42.9173 7.25695 43.6288 6.96701 44.469 6.96701V6.76701ZM45.7394 7.02609C45.3368 6.8537 44.9124 6.76701 44.469 6.76701V6.96701C44.8856 6.96701 45.2832 7.04832 45.6606 7.20994L45.7394 7.02609ZM46.7146 7.72375C46.4689 7.43081 46.1423 7.19922 45.7395 7.02613L45.6605 7.20989C46.0397 7.37281 46.3391 7.58721 46.5614 7.85227L46.7146 7.72375ZM46.1818 8.38666L46.7088 7.85866L46.5672 7.71737L46.0402 8.24537L46.1818 8.38666ZM44.468 7.70401C45.1417 7.70401 45.6589 7.93098 46.0343 8.38014L46.1877 8.25188C45.7691 7.75104 45.1923 7.50401 44.468 7.50401V7.70401ZM42.8984 8.34204C43.341 7.91571 43.8622 7.70401 44.468 7.70401V7.50401C43.8097 7.50401 43.239 7.73631 42.7596 8.19799L42.8984 8.34204ZM42.239 10C42.239 9.31389 42.4602 8.76497 42.8984 8.34196L42.7595 8.19806C42.2778 8.66306 42.039 9.26614 42.039 10H42.239ZM42.8994 11.6591C42.4602 11.235 42.239 10.6861 42.239 10H42.039C42.039 10.7339 42.2778 11.337 42.7605 11.803L42.8994 11.6591ZM44.469 12.297C43.8633 12.297 43.342 12.0853 42.8994 11.659L42.7606 11.803C43.24 12.2647 43.8107 12.497 44.469 12.497V12.297ZM46.0743 11.6563C45.6473 12.0833 45.1143 12.297 44.469 12.297V12.497C45.1637 12.497 45.7487 12.2647 46.2157 11.7977L46.0743 11.6563ZM46.5484 10.5034C46.5048 11.0053 46.3436 11.3861 46.0742 11.6564L46.2158 11.7976C46.5264 11.486 46.7011 11.0567 46.7476 10.5207L46.5484 10.5034ZM44.469 10.612H46.648V10.412H44.469V10.612ZM44.369 9.79001V10.512H44.569V9.79001H44.369ZM47.376 9.69001H44.469V9.89001H47.376V9.69001ZM47.518 10.243C47.518 10.092 47.5044 9.93491 47.4743 9.77185L47.2777 9.80818C47.3055 9.95912 47.318 10.104 47.318 10.243H47.518ZM49.296 7.83702H52.028V7.63702H49.296V7.83702ZM49.396 9.63902V7.73702H49.196V9.63902H49.396ZM51.76 9.53902H49.296V9.73902H51.76V9.53902ZM51.86 10.36V9.63902H51.66V10.36H51.86ZM49.296 10.46H51.76V10.26H49.296V10.46ZM49.396 12.262V10.36H49.196V12.262H49.396ZM52.028 12.162H49.296V12.362H52.028V12.162ZM52.128 13V12.262H51.928V13H52.128ZM48.525 13.1H52.028V12.9H48.525V13.1ZM48.425 7.00002V13H48.625V7.00002H48.425ZM52.028 6.90002H48.525V7.10002H52.028V6.90002ZM52.128 7.73702V7.00002H51.928V7.73702H52.128ZM55.278 12.9H54.507V13.1H55.278V12.9ZM55.178 7.73702V13H55.378V7.73702H55.178ZM56.954 7.63702H55.278V7.83702H56.954V7.63702ZM56.854 7.00002V7.73702H57.054V7.00002H56.854ZM52.831 7.10002H56.954V6.90002H52.831V7.10002ZM52.931 7.73702V7.00002H52.731V7.73702H52.931ZM54.507 7.63702H52.831V7.83702H54.507V7.63702ZM54.607 13V7.73702H54.407V13H54.607ZM59.838 7.00002V13H60.038V7.00002H59.838ZM60.709 6.90002H59.938V7.10002H60.709V6.90002ZM60.809 13V7.00002H60.609V13H60.809ZM59.938 13.1H60.709V12.9H59.938V13.1ZM64.127 12.9H63.356V13.1H64.127V12.9ZM64.027 7.73702V13H64.227V7.73702H64.027ZM65.803 7.63702H64.127V7.83702H65.803V7.63702ZM65.703 7.00002V7.73702H65.903V7.00002H65.703ZM61.68 7.10002H65.803V6.90002H61.68V7.10002ZM61.78 7.73702V7.00002H61.58V7.73702H61.78ZM63.356 7.63702H61.68V7.83702H63.356V7.63702ZM63.456 13V7.73702H63.256V13H63.456ZM75.675 13V7.00002H75.475V13H75.675ZM76.344 12.9H75.575V13.1H76.344V12.9ZM76.244 9.26202V13H76.444V9.26202H76.244ZM76.211 8.10887L76.244 9.26487L76.4439 9.25916L76.4109 8.10316L76.211 8.10887ZM76.344 8.00602H76.311V8.20602H76.344V8.00602ZM79.4798 12.9471L76.4288 8.05311L76.2591 8.15892L79.3101 13.0529L79.4798 12.9471ZM80.2 12.9H79.395V13.1H80.2V12.9ZM80.1 7.00002V13H80.3V7.00002H80.1ZM79.429 7.10002H80.2V6.90002H79.429V7.10002ZM79.529 10.512V7.00002H79.329V10.512H79.529ZM79.5619 11.6652L79.5289 10.5092L79.329 10.5149L79.362 11.6709L79.5619 11.6652ZM79.429 11.768H79.462V11.568H79.429V11.768ZM76.4282 7.053L79.3442 11.721L79.5138 11.615L76.5978 6.94703L76.4282 7.053ZM75.575 7.10002H76.513V6.90002H75.575V7.10002Z" fill="white"/>
<defs>
<linearGradient id="paint0_linear_245_160" x1="21.7996" y1="8.70989" x2="5.01719" y2="25.4923" gradientUnits="userSpaceOnUse">
<stop stop-color="#00A0FF"/>
<stop offset="0.0066" stop-color="#00A1FF"/>
<stop offset="0.2601" stop-color="#00BEFF"/>
<stop offset="0.5122" stop-color="#00D2FF"/>
<stop offset="0.7604" stop-color="#00DFFF"/>
<stop offset="1" stop-color="#00E3FF"/>
</linearGradient>
<linearGradient id="paint1_linear_245_160" x1="33.8343" y1="20.0016" x2="9.63739" y2="20.0016" gradientUnits="userSpaceOnUse">
<stop stop-color="#FFE000"/>
<stop offset="0.4087" stop-color="#FFBD00"/>
<stop offset="0.7754" stop-color="#FFA500"/>
<stop offset="1" stop-color="#FF9C00"/>
</linearGradient>
<linearGradient id="paint2_linear_245_160" x1="24.8269" y1="22.2962" x2="2.0686" y2="45.0545" gradientUnits="userSpaceOnUse">
<stop stop-color="#FF3A44"/>
<stop offset="1" stop-color="#C31162"/>
</linearGradient>
<linearGradient id="paint3_linear_245_160" x1="7.29723" y1="0.176348" x2="17.4598" y2="10.3388" gradientUnits="userSpaceOnUse">
<stop stop-color="#32A071"/>
<stop offset="0.0685" stop-color="#2DA771"/>
<stop offset="0.4762" stop-color="#15CF74"/>
<stop offset="0.8009" stop-color="#06E775"/>
<stop offset="1" stop-color="#00F076"/>
</linearGradient>
</defs>
</svg>
